<svg xmlns="http://www.w3.org/2000/svg" viewBox="0 0 1080 1080" width="1080" height="1080"><g transform="translate(564.0 75.0) rotate(0.0 235.0 263.5) scale(1.3284378983547156 1.3293276931498004)"><svg width="353.799" height="396.441" viewBox="0 0 353.799 396.441"><path d="M333.799 374.441H20c-11.046 0-20-8.954-20-20V20C0 8.954 8.954 0 20 0h313.799c11.046 0 20 8.954 20 20v334.441c0 11.046-8.954 20-20 20z" fill="#142664"/><path d="M333.799 6c7.72 0 14 6.28 14 14v334.441c0 7.72-6.28 14-14 14H20c-7.72 0-14-6.28-14-14V20c0-7.72 6.28-14 14-14zm0-6H20C8.954 0 0 8.954 0 20v334.441c0 11.046 8.954 20 20 20h313.799c11.046 0 20-8.954 20-20V20c0-11.046-8.954-20-20-20z" fill="#00e6b3"/><path d="M104.265 374.441h145.27v14.098h-145.27z" fill="#ff2e93"/><path d="M242.76 382.343H111.039a6.775 6.775 0 0 0-6.775 6.775v4.323a3 3 0 0 0 3 3h139.27a3 3 0 0 0 3-3v-4.323a6.773 6.773 0 0 0-6.774-6.775z" fill="#142664"/></svg></g><g transform="translate(118.0 371.0) rotate(0.0 47.5 60.5) scale(1.4719325699942674 1.4684109608990072)"><svg width="64.541" height="82.402" viewBox="0 0 64.541 82.402"><path d="M61.03 5v68.89c0 2.76-2.24 5-5 5H5c-2.76 0-5-2.24-5-5V5c0-1.36.54-2.59 1.43-3.48C2.33.58 3.6 0 5 0h51.03c2.76 0 5 2.24 5 5z" fill="#00e6b3"/><path d="M59.541 82.402H8.51a5 5 0 0 1-5-5V8.513a5 5 0 0 1 5-5h51.031a5 5 0 0 1 5 5v68.889a5 5 0 0 1-5 5z" fill="#142664"/><path d="M8.1 3.51V82.4H4.86C2.17 82.4 0 80.22 0 77.54V5c0-1.36.54-2.59 1.43-3.48C.99 2.9 3.62 3.51 8.1 3.51z" fill="#ff2e93"/></svg></g><g transform="translate(-4.0 764.0) rotate(0.0 542.5 159.5) scale(1.357487010037897 1.354415223796948)"><svg width="799.271" height="235.526" viewBox="0 0 799.271 235.526"><path d="M799.205 231.733c-3.009-13.214-21.664-25.601-52.292-36.42-1.006-5.067-2.239-8.691-3.527-12.81-2.65-8.46-6.58-15.64-11.63-21.59-9.305-10.965-22.39-17.733-38.089-20.665v-6.609c1.6-.5 5.7-7.2 6.6-12.1.35-1.81.651-3.613.93-5.409 1.326-1.468 2.439-3.338 3.237-5.725 1.814-5.428 6.28-18.51 5.026-35.06-1.112-14.685-9.53-26.565-17.771-34.49-2.573-2.475-5.358-4.419-8.111-5.982a8.507 8.507 0 0 1-3.963-5.039c-1.954-6.753-2.129-7.987-2.129-7.987-.068-.478-.233-1.732-1.102-2.192-1.689-.894-4.754 1.895-5.25 2.346-.788.716-1.531 1.606-2.196 2.616-.38.578-1.256.446-1.425-.225-2.101-8.342-1.905-18.074-3.2-20.993-4.291-9.672-19.32 2.276-26.49 23.458-.251.743-1.271.68-1.494-.072-.809-2.729-1.156-4.393-1.382-6.553-.072-.691-.175-1.974-1.134-2.539-1.867-1.1-5.526 1.852-6.067 2.386-8.945 8.826-13.239 22.721-12.313 37.017.004.106.009.212.016.317.005.074.006.149.011.223.004.055.02.097.024.151.266 2.932 1.404 5.727 3.634 8.176.86.946 1.831 1.968 2.819 3.088a37.247 37.247 0 0 0-.133 3.087c.02 9.69.9 31.25 3.96 47.3 2.4 12.3 10.9 15.9 13.1 16.5 0 0-.099 3.854-.1 6.159-13.333 3.479-25.905 11.582-34.672 23.808-43.925-5.299-93.285-8.943-145.988-10.506-9.427-10.837-22.607-17.499-38.401-20.305-.006-2.319-.099-5.982-.099-5.982 8.992-1.745 12.437-6.761 14.837-19.061.759-3.981 1.276-8.143 1.626-12.299 2.417 1.12 5.087-.316 7.195-5.233 1.96-4.6 3.42-8.91 4.44-12.93 10.35-3.69 19.12-11.14 21.89-23.48 3.61-16.09-7.9-32.37-23.99-35.98-5.24-1.17-11.57-.4-17.86 1.74-.87-.91-1.89-1.75-3.09-2.5-2.19-1.38-4.98-2.44-8.55-2.97-19.01-2.82-34.57-.02-46.4 7.63-8.33-3.7-17.33-5.3-24.26-3.5-15.95 4.16-26.91 20.82-22.75 36.78 2.96 11.39 10.98 18.37 20.521 21.96v.01c-.17 14.21 3.53 29.37 13.2 41.99 1.751 2.283 3.717 1.839 5.094.069 2.615 4.38 6.193 6.723 10.998 7.775 0 0-.1 3.9-.1 6.2 0 .108.017.212.027.317-.702.137-1.418.279-2.168.433-12.976 2.304-25.566 8.969-35.064 19.522-49.732 1.631-96.39 5.118-138.185 10.099-8.706-11.156-21.078-18.297-36.047-21.727a376.008 376.008 0 0 0-.091-4.783c2.2-.6 10.7-4.2 13.1-16.5 2.793-14.649 3.769-33.883 3.934-44.497 10.965-8.54 10.546-28.89 10.546-30.668-.75-10.861-9.263-19.543-19.241-19.543-.436 0-.872.012-1.307.048-2.119 0-3.959.521-5.8 1.308-3.16 1.32-7.12.799-10.014-1.308-3.427-2.64-7.907-4.226-12.387-3.959-6.067.266-11.333 3.959-14.76 8.96-1.32 2.107-3.427 3.427-5.8 3.693-3.867.256-7.385 1.597-10.361 3.702a429.724 429.724 0 0 1-2.025-2.387C58.486-19.033 5.909 71.356 80.836 84.48l.047.008c2.513.436 3.665 2.844 3.448 5.386-.295 3.468-.524 13.9-.039 17.7 2.278 17.849 8.399 28.668 21.787 30.526v6.203c-11.49 2.289-22.616 7.98-31.474 16.77-6.26 6.21-11.39 13.97-14.72 23.16a111.811 111.811 0 0 0-2.948 9.503C23.59 204.922 3.221 217.872.065 231.733c-.45 1.976 1.458 3.793 3.946 3.793h791.246c2.489 0 4.398-1.817 3.948-3.793z" fill="#142664"/><g fill="#ff2e93"><path d="M731.756 160.914c-1.66-.27-3.36-.41-5.1-.41h-67.51c-17.67 0-32 14.33-32 32v43h12.1v-15.05c0-3.31 2.69-6 6-6h95.32c3.31 0 6 2.69 6 6v15.05h12.09v-43c0-15.93-11.64-29.15-26.9-31.59zm-265.05 7.66c-5.84-6.2-14.12-10.07-23.31-10.07h-87.52c-17.67 0-32 14.33-32 32v45h12.1v-17.05c0-3.31 2.69-6 6-6h115.32c3.31 0 6 2.69 6 6v17.05h12.1v-45c0-8.49-3.3-16.2-8.69-21.93zm-318.56-8.07h-67.51c-2.06 0-4.08.19-6.03.57-14.79 2.82-25.97 15.82-25.97 31.43v43h12.1v-15.05c0-3.31 2.68-6 6-6h95.31c3.32 0 6 2.69 6 6v15.05h12.1v-43c0-17.67-14.32-32-32-32z"/></g></svg></g><g transform="translate(42.0 150.0) rotate(0.0 243.5 299.0) scale(1.117964799030332 1.1198501872659177)"><svg width="435.613" height="534" viewBox="0 0 435.613 534"><path d="M356 307.5c-25.2 0-45.7-20.5-45.7-45.7v-70.3c0-14.9-12.1-27.1-27.1-27.1v-17.3c24.5 0 44.4 19.9 44.4 44.4v70.3c0 15.7 12.8 28.4 28.4 28.4s28.4-12.8 28.4-28.4V151.5h17.3v110.3c0 25.2-20.5 45.7-45.7 45.7z" fill="#00e6b3"/><path d="M352.2 307.3c-3.5-.3-7.1-1-10.4-2.1l5.3-16.4c2.1.7 4.3 1.1 6.5 1.3v.1zm20.9-3.1-6.5-16c2-.8 4-1.9 5.8-3.2h.1l10 14c-3 2.1-6.1 3.8-9.4 5.2zm-49.3-10c-2.6-2.5-4.8-5.3-6.7-8.3l14.6-9.1c1.2 1.9 2.6 3.6 4.1 5.2v.1zm72.5-11-15.2-8.1c1-1.9 1.8-4 2.4-6.1h.1l16.7 4.3c-1 3.4-2.3 6.7-4 9.9.1 0 .1 0 0 0zm-85.8-17.3c-.1 0-.1 0 0 0-.2-1.4-.2-2.8-.2-4.1v-5.3h17.2v5.3c0 .8 0 1.7.1 2.5zm91.2-12h-17.3v-8.6h17.2zm-74.2-14.7h-17.2v-8.6h17.2zm74.2-11.2h-17.3v-8.6h17.2zm-74.2-14.8h-17.2v-8.6h17.2zm74.2-11.2h-17.3v-8.6h17.2zm-91.6-13.7c-.3-2.2-.8-4.4-1.6-6.4l16.1-6.1c1.3 3.3 2.1 6.9 2.6 10.4zm91.6-12.2h-17.3v-8.6h17.2zm-100.6-4.8c-1.7-1.5-3.5-2.7-5.4-3.7l8-15.2c3.2 1.7 6.1 3.7 8.8 6.1l-11.4 12.8c.1-.1.1 0 0 0z" fill="#142664"/><path d="M222.7 273.3H240v238.2h-17.3z" fill="#00e6b3"/><path d="M239.9 503.5h-17.2v-8.6h17.2zm0-25.9h-17.2v-8.7h17.2zm0-26h-17.2V443h17.2zm0-25.9h-17.2v-8.6h17.2zm0-25.9h-17.2v-8.7h17.2v8.7c.1-.1 0 0 0 0zm0-26h-17.2v-8.6h17.2zm0-25.9h-17.2v-8.6h17.2v8.6c.1-.1 0 0 0 0zm0-26h-17.2v-8.6h17.2zm2.7-69.2c1.5 0 2.7 1.2 2.7 2.7v20.2c0 .7-.3 1.4-.8 1.9l-15.6 15.6c-.5.5-1.2.8-1.9.8h-48.6l-17.1-17.1v-24.1z" fill="#142664"/><path d="M205.4 146.6c-4.8 0-8.6-3.9-8.6-8.6V57.9c0-4.8 3.9-8.6 8.6-8.6 4.8 0 8.6 3.9 8.6 8.6V138c.1 4.7-3.8 8.6-8.6 8.6z" fill="#00e6b3"/><path d="M214.1 146.6h-17.2v-8.7h17.2zm0-25.9h-17.2v-8.6h17.2zm0-26h-17.2v-7h17.2z" fill="#142664"/><path d="M175.4 520.1c-4.8 0-8.6-3.9-8.6-8.6V290.8c0-4.8 3.9-8.6 8.6-8.6 4.8 0 8.6 3.9 8.6 8.6v220.7c0 4.7-3.9 8.6-8.6 8.6z" fill="#00e6b3"/><path d="M184 503.5h-17.2v-8.6H184zm0-25.9h-17.2v-8.7H184zm0-26h-17.2V443H184zm0-25.9h-17.2v-8.6H184zm0-25.9h-17.2v-8.7H184v8.7c0-.1 0 0 0 0zm0-26h-17.2v-8.6H184zm0-25.9h-17.2v-8.6H184v8.6c0-.1 0 0 0 0zm0-26h-17.2v-8.6H184zm36.5 186.3h21.6l11.3 11.3c.5.5 1.3.9 2.1.9h3.2c.8 0 1.5.3 2.1.9l3.2 3.2c.7.7 1.1 1.7 1.1 2.8v4.5c0 .6-.2 1.1-.6 1.6-.4.4-1 .6-1.6.6h-40.2c-.6 0-1.1-.2-1.6-.6-.4-.4-.6-1-.6-1.6v-23.6z" fill="#142664"/><path d="m245.2 511.3 3.1 3.1-17.4 17.4c-.8.8-2.2.8-3.1 0-.8-.8-.8-2.2 0-3.1zm6.8 6.8 1.5 1.5c.5.5 1.3.9 2.1.9h.2l-12 12c-.8.8-2.2.8-3.1 0-.8-.8-.8-2.2 0-3.1z" fill="#ff2e93"/><path d="M265.1 526.9h-44.6v4.7c0 .6.2 1.1.6 1.6.4.4 1 .6 1.6.6h40.2c.6 0 1.1-.2 1.6-.6.4-.4.6-1 .6-1.6v-4.7z" fill="#ff2e93"/><path d="M164.6 508.2h21.6l11.3 11.3c.5.5 1.3.9 2.1.9h3.2c.8 0 1.5.3 2.1.9l3.2 3.2c.7.7 1.1 1.7 1.1 2.8v4.5c0 .6-.2 1.1-.6 1.6-.4.4-1 .6-1.6.6h-40.2c-.6 0-1.1-.2-1.6-.6-.4-.4-.6-1-.6-1.6v-23.6z" fill="#142664"/><path d="m189.3 511.3 3.1 3.1-17.4 17.4c-.8.8-2.2.8-3.1 0-.8-.8-.8-2.2 0-3.1zm6.7 6.8 1.5 1.5c.5.5 1.3.9 2.1.9h.2l-12 12c-.8.8-2.2.8-3.1 0-.8-.8-.8-2.2 0-3.1z" fill="#ff2e93"/><path d="M209.2 526.9h-44.6v4.7c0 .6.2 1.1.6 1.6.4.4 1 .6 1.6.6H207c.6 0 1.1-.2 1.6-.6.4-.4.6-1 .6-1.6v-4.7z" fill="#ff2e93"/><path d="M190.9 242h25.9v10.6h-25.9z" fill="#00e6b3"/><path d="M318.8 28V16.5c0-1.8-.7-3.6-2-4.9l-9.5-9.5c-1.3-1.3-3.1-2-4.9-2h-121a7 7 0 0 0-7 7v60.7c0 3.8 3.1 7 7 7h13.8c1.8 0 3.6.7 4.9 2l23.7 23.7c1.3 1.3 3.1 2 4.9 2h76.8c3.8 0 7-3.1 7-7v-11zM144.3 182.4v-53.9h118.3c14.8.1 26.8 12.1 26.8 26.9 0 14.9-12.1 26.9-26.9 26.9h-14l-12.1 12.1V225l-17 17h-32.1l-17-17v-30.6l-11.9-11.9h-14.1z" fill="#142664"/><g fill="#00e6b3"><path d="M243.2 268H229c-.5 0-.9-.2-1.2-.5l-11.7-11.6c-.7-.7-.7-1.8 0-2.4.7-.7 1.8-.7 2.4 0l11.1 11.1h13.5c1 0 1.7.8 1.7 1.7s-.7 1.7-1.6 1.7zm-59 0h-22.9c-1 0-1.7-.8-1.7-1.7s.8-1.7 1.7-1.7h22.2l11.1-11.1c.7-.7 1.8-.7 2.4 0 .7.7.7 1.8 0 2.4l-11.6 11.5c-.3.4-.7.6-1.2.6zm5.4-97h-26.3c-1 0-1.7-.8-1.7-1.7 0-1 .8-1.7 1.7-1.7h26.3c1.8 0 3.3-1.5 3.3-3.3v-15c0-1.2-.5-2.4-1.3-3.2l-13.5-13.5 2.4-2.4 13.5 13.5c1.5 1.5 2.4 3.5 2.4 5.7v15c0 3.6-3.1 6.6-6.8 6.6zm92.7 0h-7.1c-3.7 0-6.8-3-6.8-6.8v-15c0-1.2-.5-2.4-1.3-3.2l-13.5-13.5 2.4-2.4 13.5 13.5c1.5 1.5 2.4 3.5 2.4 5.7v15c0 1.8 1.5 3.3 3.3 3.3h7.1c1 0 1.7.8 1.7 1.7 0 1-.8 1.7-1.7 1.7zm-91.8 32.4h-23.7c-1 0-1.7-.8-1.7-1.7s.8-1.7 1.7-1.7h23.7c1 0 1.7.8 1.7 1.7s-.7 1.7-1.7 1.7zm48.3 0h-9.6c-1 0-1.7-.8-1.7-1.7s.8-1.7 1.7-1.7h9.6c1 0 1.7.8 1.7 1.7s-.8 1.7-1.7 1.7zm-48.3 10.3h-23.7c-1 0-1.7-.8-1.7-1.7 0-1 .8-1.7 1.7-1.7h23.7c1 0 1.7.8 1.7 1.7s-.7 1.7-1.7 1.7zm48.3 0h-9.6c-1 0-1.7-.8-1.7-1.7 0-1 .8-1.7 1.7-1.7h9.6c1 0 1.7.8 1.7 1.7s-.8 1.7-1.7 1.7zM190.5 224h-23.7c-1 0-1.7-.8-1.7-1.7s.8-1.7 1.7-1.7h23.7c1 0 1.7.8 1.7 1.7s-.7 1.7-1.7 1.7zm48.3 0h-9.6c-1 0-1.7-.8-1.7-1.7s.8-1.7 1.7-1.7h9.6c1 0 1.7.8 1.7 1.7s-.8 1.7-1.7 1.7z"/><circle cx="230.3" cy="278" r="3.7"/></g><circle cx="172.1" cy="515.1" fill="#ff2e93" r="3.7"/><circle cx="228.3" cy="515.1" fill="#ff2e93" r="3.7"/><path d="M196.5 53.154c-6.3 0-11.5-5.2-11.5-11.5s5.2-11.5 11.5-11.5 11.5 5.2 11.5 11.5-5.2 11.5-11.5 11.5zm0-19.5c-4.4 0-8 3.6-8 8s3.6 8 8 8 8-3.6 8-8-3.6-8-8-8z" fill="#00e6b3"/><circle cx="196.5" cy="41.654" fill="#00e6b3" r="3"/><path d="M216.5 43.454h-10.2c-1 0-1.7-.8-1.7-1.7 0-1 .8-1.7 1.7-1.7h10.2c1 0 1.7.8 1.7 1.7s-.7 1.7-1.7 1.7zm-33.3 16h-6.8c-1 0-1.7-.8-1.7-1.7s.8-1.7 1.7-1.7h6.1l7.4-7.4c.7-.7 1.8-.7 2.4 0 .7.7.7 1.8 0 2.4l-7.9 7.9c-.3.3-.7.5-1.2.5zM282.2 0H269s9.2 9.3 13.6 13.6c1.4 1.4 3.4 2.3 5.4 2.3h5.5c.8 0 1.5-.5 1.7-1.2.3-.7.1-1.5-.4-2.1L282.2 0zm-26 0H243s9.2 9.3 13.6 13.6c1.4 1.4 3.4 2.3 5.4 2.3h5.5c.8 0 1.5-.5 1.8-1.2s.1-1.5-.4-2.1C264.2 8 256.2 0 256.2 0z" fill="#00e6b3"/><circle cx="144.3" cy="155.5" fill="#ff2e93" r="26.9"/><circle cx="143.2" cy="155.5" fill="#142664" r="15.5"/><path d="M89 266.7H59.9c-33 0-59.9-26.9-59.9-59.9s26.9-59.9 59.9-59.9H140c4.8 0 8.6 3.9 8.6 8.6 0 4.8-3.9 8.6-8.6 8.6H59.9c-23.5 0-42.6 19.1-42.6 42.6s19.1 42.6 42.6 42.6H89c4.8 0 8.6 3.9 8.6 8.6s-3.9 8.8-8.6 8.8z" fill="#00e6b3"/><path d="M78.9 266.7h-8.6v-17.4h8.6zm-27.1-.5c-3.3-.5-6.7-1.2-9.9-2.2v-.1l5.1-16.549h.1c2.3.7 4.6 1.2 7 1.6L51.8 266.2c0-.1 0 0 0 0zM24 254.8c-2.7-2-5.3-4.3-7.6-6.7v-.1l12.673-11.9h.1c1.6 1.7 3.5 3.3 5.4 4.8v.1L24 254.8c.1 0 .1 0 0 0zM5.3 231.5c-.1 0-.1 0 0 0-1.4-3.1-2.6-6.3-3.4-9.6v-.1l16.868-4.3c.6 2.3 1.244 4.6 2.244 6.8v.1zm12.151-28.2L.1 201.9c.3-3.4.8-6.7 1.7-10l16.851 4.3c-.5 2.3-.9 4.7-1.2 7.1.1 0 .1 0 0 0zm6.849-20.1L10 173.6c1.9-2.8 4-5.4 6.3-7.9l12.5 11.8v.1c-1.6 1.7-3.1 3.6-4.5 5.6.1 0 .1 0 0 0zm16-14.3-7.9-15.3v-.1c3-1.5 6.1-2.9 9.3-3.9h.1L47 166v.1c-2.3.8-4.6 1.7-6.7 2.8zm81.6-4.7h-8.6v-17.3h8.6zm-26 0h-8.6v-17.3h8.6v17.3c.1 0 .1 0 0 0zm-25.9 0h-8.6v-17.3H70z" fill="#142664"/><circle cx="394.496" cy="135.176" fill="#142664" r="24.2"/><path d="M391.531 114.693a5.164 5.164 0 0 1-.31-7.347l22.873-24.885c1.962-2.135 5.212-2.272 7.347-.31s2.272 5.212.31 7.347l-22.873 24.885a5.163 5.163 0 0 1-7.347.31z" fill="#ff2e93"/><path d="m411.58 85.202 2.368-2.577 7.657 7.038-2.369 2.577zm-9.27 10.086 2.368-2.577 7.656 7.038-2.368 2.577z" fill="#142664"/><path d="m398.667 99.216 31.248 28.722-11.99 13.045-31.248-28.722z" fill="#ff2e93"/><path d="m391.493 107.056 2.368-2.577L425.11 133.2l-2.369 2.576z" fill="#142664"/><path d="m391.493 107.056 2.368-2.577L425.11 133.2l-2.369 2.576z" fill="#142664"/><path d="M422.163 105.868a5.164 5.164 0 0 0-7.347.31l-14.752 16.05a5.164 5.164 0 0 0 .31 7.347 5.164 5.164 0 0 0 7.347-.31l14.752-16.05c1.962-2.135 1.751-5.452-.31-7.347z" fill="#ff2e93"/><path d="m400.187 122.096 2.368-2.576 7.657 7.037-2.369 2.577zm9.271-10.086 2.368-2.577 7.657 7.038-2.369 2.577z" fill="#142664"/><path d="M433.943 116.695a5.164 5.164 0 0 0-7.347.31l-14.752 16.05a5.164 5.164 0 0 0 .31 7.347 5.164 5.164 0 0 0 7.347-.31l14.752-16.05c1.962-2.134 1.751-5.452-.31-7.347z" fill="#ff2e93"/><path d="m411.966 132.924 2.368-2.577 7.657 7.038-2.369 2.577zm9.271-10.086 2.369-2.576 7.656 7.037-2.368 2.577z" fill="#142664"/><path d="M81.043 245.602a6.505 6.505 0 0 1-.948-9.151l15.889-19.583c2.229-2.744 6.307-3.167 9.151-.948 2.744 2.229 3.167 6.307.948 9.151l-15.889 19.583a6.505 6.505 0 0 1-9.151.948z" fill="#ff2e93"/><path d="m92.338 221.481 2.764-3.403 10.099 8.203-2.764 3.403zm-9.977 12.198 2.764-3.403 10.099 8.203-2.764 3.403z" fill="#142664"/><path d="M80.1 257.03c0-2.9 2.3-5.2 5.2-5.2h53.8c2.9 0 5.2 2.3 5.2 5.2s-2.3 5.2-5.2 5.2H85.3c-2.9 0-5.2-2.4-5.2-5.2z" fill="#ff2e93"/><path d="M135.4 251.83h3.5v10.4h-3.5zm-13.7 0h3.5v10.4h-3.5z" fill="#142664"/><path d="M80.1 273.03c0-2.9 2.3-5.2 5.2-5.2h53.8c2.9 0 5.2 2.3 5.2 5.2s-2.3 5.2-5.2 5.2H85.3c-2.9 0-5.2-2.4-5.2-5.2z" fill="#ff2e93"/><path d="M135.4 267.83h3.5v10.4h-3.5zm-13.7 0h3.5v10.4h-3.5z" fill="#142664"/><circle cx="87.25" cy="257.03" fill="#142664" r="24.2"/><path d="M100.1 240.986c0-2.9 2.3-5.2 5.2-5.2h33.8c2.9 0 5.2 2.3 5.2 5.2s-2.3 5.2-5.2 5.2h-33.8c-2.9 0-5.2-2.3-5.2-5.2z" fill="#ff2e93"/><path d="M135.4 235.786h3.5v10.4h-3.5zm-13.7 0h3.5v10.4h-3.5z" fill="#142664"/><path d="M116.55 235.786v42.444H98.831v-42.444z" fill="#ff2e93"/><path d="M105.941 235.786h3.5v42.444h-3.5z" fill="#142664"/><path d="M105.941 235.786h3.5v42.444h-3.5z" fill="#142664"/><path d="m374.875 110.56 5.038 8.686c1.774 3.058.721 7.021-2.363 8.891-3.058 1.774-7.021.721-8.891-2.363l-8.302-14.313c-1.774-3.058-.721-7.021 2.363-8.891l18.105-10.502c3.058-1.774 7.021-.721 8.891 2.363 1.774 3.058.721 7.021-2.363 8.891z" fill="#ff2e93"/><path d="m373.047 96.628 3-1.801 6.693 11.145-3 1.801zm1.828 13.932 2.413 4.159-14.848.192-1.987-3.425c-.142-.245-.258-.586-.4-.831l15.041-.141z" fill="#142664"/><path d="M237.443 64.032c-11.051-.807-19.742-9.995-19.742-21.232s8.691-20.425 19.742-21.232v-.062h13.099v42.526h-9.995c-.497.062-1.055.062-1.552.062s-1.055-.062-1.552-.062z" fill="#ff2e93"/><circle cx="250.604" cy="42.8" fill="#fff" r="21.294"/><path d="M260.724 57.575h-6.953c-.372 0-.745.062-1.055.062-.372 0-.745 0-1.055-.062-7.636-.559-13.72-6.953-13.72-14.775s6.084-14.217 13.72-14.775v-.062h9.126v29.613h-.063z" fill="#ff2e93"/><circle cx="260.724" cy="42.8" fill="#00e6b3" r="14.775"/><circle cx="261.724" cy="42.8" fill="#142664" r="7.388"/><path d="M221.736 38.703h-2.049c-.745 0-1.366-.621-1.366-1.366s.621-1.366 1.366-1.366h3.725c.435 0 .807.186 1.055.559.248.372.31.807.186 1.18 0 0-1.304 4.097 0 8.257.124.435.062.869-.186 1.18a1.3 1.3 0 0 1-1.055.559h-4.097c-.745 0-1.366-.621-1.366-1.366s.621-1.366 1.366-1.366h2.359c-.372-2.422-.186-4.781.062-6.271z" fill="#00e6b3"/><path d="M301.912 64.032c-11.051-.807-19.742-9.995-19.742-21.232s8.691-20.425 19.742-21.232v-.062h13.099v42.526h-9.995c-.497.062-1.055.062-1.552.062-.496 0-1.055-.062-1.552-.062z" fill="#ff2e93"/><circle cx="315.074" cy="42.8" fill="#fff" r="21.294"/><path d="M325.193 57.575h-6.953c-.372 0-.745.062-1.055.062-.372 0-.745 0-1.055-.062-7.636-.559-13.72-6.953-13.72-14.775s6.084-14.217 13.72-14.775v-.062h9.126v29.613h-.063z" fill="#ff2e93"/><circle cx="325.193" cy="42.8" fill="#00e6b3" r="14.775"/><circle cx="326.193" cy="42.8" fill="#142664" r="7.388"/><path d="M286.206 38.703h-2.049c-.745 0-1.366-.621-1.366-1.366s.621-1.366 1.366-1.366h3.725c.435 0 .807.186 1.055.559s.31.807.186 1.18c0 0-1.304 4.097 0 8.257.124.435.062.869-.186 1.18a1.3 1.3 0 0 1-1.055.559h-4.097c-.745 0-1.366-.621-1.366-1.366s.621-1.366 1.366-1.366h2.359c-.373-2.422-.187-4.781.062-6.271zM244.917 88.56h-3.976a2 2 0 0 1-2-2v-8.366a2 2 0 0 1 2-2h3.976a2 2 0 0 1 2 2v8.366a2 2 0 0 1-2 2zm10.421 0h-3.976a2 2 0 0 1-2-2v-8.366a2 2 0 0 1 2-2h3.976a2 2 0 0 1 2 2v8.366a2 2 0 0 1-2 2zm10.421 0h-3.976a2 2 0 0 1-2-2v-8.366a2 2 0 0 1 2-2h3.976a2 2 0 0 1 2 2v8.366a2 2 0 0 1-2 2zm10.421 0h-3.976a2 2 0 0 1-2-2v-8.366a2 2 0 0 1 2-2h3.976a2 2 0 0 1 2 2v8.366a2 2 0 0 1-2 2zm10.421 0h-3.976a2 2 0 0 1-2-2v-8.366a2 2 0 0 1 2-2h3.976a2 2 0 0 1 2 2v8.366a2 2 0 0 1-2 2z" fill="#00e6b3"/><path d="M297.021 88.56h-3.976a2 2 0 0 1-2-2v-8.366a2 2 0 0 1 2-2h3.976a2 2 0 0 1 2 2v8.366a2 2 0 0 1-2 2z" fill="#ff2e93"/></svg></g><g transform="translate(172.0 100.0) rotate(-21.496159684089168 105.5 45.5) scale(1.323066504470836 1.3155421913174214)"><svg width="159.478" height="69.173" viewBox="0 0 159.478 69.173"><path d="M124.239 17.736h-88l-5.765 27.836a6.01 6.01 0 0 0 4.817 7.131c29.688 5.351 59.376 5.341 89.064-.03a6.011 6.011 0 0 0 4.849-6.963z" fill="#FF2E93"/><path d="M39.896 47.254s.556.114 1.586.277l4.406.723c3.766.549 9.062 1.315 15.2 1.839 6.443.519 13.898.91 21.332.829 2.099-.012 4.277-.077 6.45-.184 2.174-.072 4.34-.254 6.417-.422a240.292 240.292 0 0 0 20.929-2.529c2.676-.42 4.83-.843 6.323-1.124 1.492-.281 2.305-.432 2.373-.458 1.794-.378 3.012-1.536 3.492-2.481.504-.966.397-1.693.076-1.925-.391-.258-.977.047-1.685.383-.71.35-1.562.718-2.475.917l-.112.021a6.79 6.79 0 0 1-.395.065l-1.72.261c-1.492.224-3.641.574-6.297.9a258.94 258.94 0 0 1-20.563 1.887c-4.15.156-8.27.357-12.711.406-7.303.083-14.585-.095-20.909-.496-6.012-.354-11.283-.938-15.06-1.336l-4.435-.55-1.607-.208c-2.824-.502-4.957-.084-5.207.703-.238.995 2.053 2.143 4.592 2.502z" fill="#142664"/><path d="M13.879 67.027a2 2 0 0 1-1.892-1.352L6.524 49.749a2.008 2.008 0 0 1 .021-1.359l11.562-30.439a2 2 0 1 1 3.74 1.42L10.541 49.134l5.229 15.243a2.001 2.001 0 0 1-1.891 2.65z" fill="#ff2e93"/><g fill="#142664"><circle cx="19.976" cy="18.661" r="4.195"/><circle cx="8.415" cy="49.1" r="6.146"/><circle cx="13.879" cy="65.027" r="4.146"/><path d="M158.683 16.35 81.691.192a8.995 8.995 0 0 0-3.895.044L.773 18.221c-1.042.243-1.025 1.733.022 1.952l76.992 16.158a8.995 8.995 0 0 0 3.895-.044l77.024-17.985c1.041-.243 1.024-1.732-.023-1.952z"/></g></svg></g><g transform="translate(478.0 336.0) rotate(-133.76018254405366 9.0 -65.5) scale(1.8 -1.7919676077916393)"><svg width="10" height="73.104" viewBox="0 0 10 73.104"><path d="M10 12.225v58.119c0 1.525-1.069 2.761-2.388 2.761h-5.22c-1.319 0-2.388-1.236-2.388-2.761V12.225c0-.433.055-.866.164-1.272 1.475.776 3.11 1.085 4.834 1.085 1.725 0 3.359-.309 4.834-1.085.11.405.164.839.164 1.272z" fill="#142664"/><path d="M9.837 10.952a10.313 10.313 0 0 1-4.83 1.209c-1.725 0-3.363-.433-4.838-1.209.07-.298.179-.586.304-.866L4.14.595c.367-.794 1.358-.794 1.732 0l3.66 9.491c.133.28.234.569.305.866z" fill="#142664"/><g fill="#FF2E93"><path d="M10 12.222v8.44h-.16c-1.48.77-3.11 1.21-4.83 1.21-1.73 0-3.37-.44-4.84-1.21H0v-8.44c0-.43.06-.86.17-1.27 1.04.55 2.16.86 3.34.99a12.332 12.332 0 0 0 2.99 0c1.18-.13 2.3-.44 3.34-.99.11.41.16.841.16 1.27zm0 53.71v4.41c0 1.53-1.07 2.76-2.39 2.76H2.39c-1.32 0-2.39-1.23-2.39-2.76v-4.41h.17c1.47.77 3.11 1.2 4.84 1.2 1.72 0 3.35-.43 4.83-1.2z"/></g></svg></g><g transform="translate(665.0 236.0) rotate(0.0 139.5 139.5) scale(1.5541530422963585 1.5541616996624295)"><svg width="179.519" height="179.518" viewBox="0 0 179.519 179.518"><circle cx="89.759" cy="89.759" fill="#fff" r="15.205"/><path d="M89.76 107.223c-9.63 0-17.465-7.835-17.465-17.464S80.13 72.295 89.76 72.295s17.464 7.835 17.464 17.464-7.835 17.464-17.464 17.464zm0-30.411c-7.139 0-12.947 5.808-12.947 12.947s5.808 12.947 12.947 12.947 12.947-5.808 12.947-12.947c-.001-7.139-5.809-12.947-12.947-12.947z" fill="#FFF"/><path d="M42.457 159.052c-6.784 0-12.285-1.942-16.167-5.824-7.606-7.606-7.767-21.435-.454-38.94 6.981-16.71 20.009-35.096 36.683-51.769 16.674-16.674 35.059-29.702 51.769-36.683 17.504-7.315 31.334-7.152 38.94.454s7.767 21.435.454 38.939c-6.981 16.71-20.009 35.096-36.683 51.769-16.673 16.674-35.059 29.702-51.769 36.683-8.572 3.582-16.263 5.371-22.773 5.371zm94.574-132.923c-5.726 0-12.726 1.642-20.566 4.918-16.047 6.704-33.787 19.299-49.954 35.465-32.24 32.24-48.83 70.123-36.229 82.724 5.795 5.794 17.739 5.516 32.77-.764 16.047-6.704 33.787-19.299 49.954-35.465 32.239-32.24 48.83-70.122 36.229-82.724-2.771-2.772-6.952-4.154-12.204-4.154z" fill="#00e6b3"/><path d="M137.065 159.055c-.195 0-.39-.002-.587-.005a2.823 2.823 0 1 1 .086-5.645c2.217.024 4.271-.173 6.083-.619a2.823 2.823 0 1 1 1.352 5.482c-2.118.521-4.45.786-6.934.787zm-11.81-1.733c-.242 0-.489-.031-.733-.097a76.887 76.887 0 0 1-6.776-2.177 2.823 2.823 0 0 1 1.964-5.294 71.307 71.307 0 0 0 6.276 2.017 2.824 2.824 0 0 1-.731 5.551zm27.477-5.019a2.824 2.824 0 0 1-2.276-4.491c1.064-1.454 1.852-3.207 2.34-5.209a2.819 2.819 0 0 1 3.412-2.074 2.823 2.823 0 0 1 2.074 3.412c-.665 2.726-1.764 5.15-3.269 7.206a2.819 2.819 0 0 1-2.281 1.156zm-44.457-1.691a2.8 2.8 0 0 1-1.274-.306 131.38 131.38 0 0 1-6.162-3.34 2.823 2.823 0 1 1 2.82-4.892 126.159 126.159 0 0 0 5.895 3.196 2.823 2.823 0 0 1-1.279 5.342zm-15.702-9.353a2.813 2.813 0 0 1-1.587-.49 179.095 179.095 0 0 1-5.679-4.037 2.824 2.824 0 0 1 3.361-4.539 170.552 170.552 0 0 0 5.499 3.909 2.823 2.823 0 0 1-1.594 5.157zm63.287-6.519a2.824 2.824 0 0 1-2.794-2.444 51.03 51.03 0 0 0-1.308-6.358 2.824 2.824 0 0 1 5.453-1.467c.658 2.446 1.146 4.823 1.45 7.065a2.823 2.823 0 0 1-2.801 3.204zm-77.846-4.535c-.64 0-1.283-.216-1.812-.66a208.223 208.223 0 0 1-5.253-4.557 2.823 2.823 0 1 1 3.772-4.203 200.84 200.84 0 0 0 5.108 4.432 2.824 2.824 0 0 1-1.815 4.988zM64.536 117.85a2.807 2.807 0 0 1-1.993-.826l-.035-.035a218.228 218.228 0 0 1-4.824-4.981 2.824 2.824 0 0 1 4.119-3.863 211.944 211.944 0 0 0 4.707 4.861l.037.037a2.826 2.826 0 0 1-2.011 4.807zm86.144-.588a2.825 2.825 0 0 1-2.595-1.708c-.846-1.966-1.801-4-2.839-6.045a2.824 2.824 0 0 1 5.036-2.556 111.615 111.615 0 0 1 2.99 6.369 2.822 2.822 0 0 1-2.592 3.94zm-98.521-12.909a2.817 2.817 0 0 1-2.165-1.009 199.3 199.3 0 0 1-4.376-5.408 2.822 2.822 0 1 1 4.452-3.474 194.909 194.909 0 0 0 4.252 5.254 2.825 2.825 0 0 1-2.163 4.637zm89.99-3.248a2.822 2.822 0 0 1-2.403-1.337 155.287 155.287 0 0 0-3.674-5.645 2.824 2.824 0 0 1 4.666-3.18 163.063 163.063 0 0 1 3.807 5.851 2.822 2.822 0 0 1-2.396 4.311zM41.105 89.794a2.819 2.819 0 0 1-2.336-1.234 160.7 160.7 0 0 1-3.807-5.851 2.823 2.823 0 1 1 4.8-2.974 157.35 157.35 0 0 0 3.673 5.645 2.824 2.824 0 0 1-2.33 4.414zm90.56-3.664a2.82 2.82 0 0 1-2.228-1.086 194.162 194.162 0 0 0-4.251-5.253 2.825 2.825 0 0 1 4.327-3.629 198.329 198.329 0 0 1 4.377 5.408 2.824 2.824 0 0 1-2.225 4.56zM31.748 74.096a2.823 2.823 0 0 1-2.52-1.546 111.502 111.502 0 0 1-2.989-6.37 2.823 2.823 0 1 1 5.188-2.23 106.19 106.19 0 0 0 2.837 6.045 2.824 2.824 0 0 1-2.516 4.101zm88.014-1.844a2.817 2.817 0 0 1-2.06-.891 215.368 215.368 0 0 0-4.709-4.862 2.823 2.823 0 1 1 4.005-3.98 219.995 219.995 0 0 1 4.822 4.977 2.824 2.824 0 0 1-2.058 4.756zm-13.068-12.787a2.812 2.812 0 0 1-1.885-.722 201.098 201.098 0 0 0-5.107-4.432 2.824 2.824 0 0 1 3.628-4.328 208.75 208.75 0 0 1 5.252 4.557 2.823 2.823 0 0 1-1.888 4.925zm-81.666-2.344a2.825 2.825 0 0 1-2.725-2.091c-.657-2.447-1.145-4.824-1.449-7.066a2.825 2.825 0 0 1 5.596-.758c.271 2.004.711 4.143 1.306 6.358a2.825 2.825 0 0 1-2.728 3.557zm67.515-9.23c-.584 0-1.174-.18-1.679-.555a171.927 171.927 0 0 0-5.498-3.909 2.823 2.823 0 1 1 3.18-4.666 177.826 177.826 0 0 1 5.679 4.038 2.824 2.824 0 0 1-1.682 5.092zm-68.557-8.837a2.824 2.824 0 0 1-2.745-3.496c.667-2.725 1.769-5.148 3.276-7.203a2.823 2.823 0 1 1 4.554 3.338c-1.066 1.454-1.855 3.206-2.345 5.207a2.824 2.824 0 0 1-2.74 2.154zm53.296-1.223c-.479 0-.963-.122-1.408-.378a124.85 124.85 0 0 0-5.895-3.196 2.823 2.823 0 1 1 2.554-5.036 129.672 129.672 0 0 1 6.161 3.341 2.823 2.823 0 0 1-1.412 5.269zm-16.476-7.883c-.326 0-.658-.057-.982-.177a71.102 71.102 0 0 0-6.276-2.019 2.824 2.824 0 0 1 1.464-5.454 76.907 76.907 0 0 1 6.776 2.179 2.823 2.823 0 0 1-.982 5.471zm-24.594-3.136a2.824 2.824 0 0 1-.672-5.566c2.112-.519 4.435-.782 6.905-.782h.009c.202 0 .406.002.612.006a2.823 2.823 0 0 1-.049 5.647l-.051-.001c-.174-.003-.343-.024-.52-.004-2.017 0-3.887.208-5.558.619a2.87 2.87 0 0 1-.676.081z" fill="#FFF"/><path d="M89.76 128.282C39.427 128.282 0 111.361 0 89.759s39.427-38.523 89.76-38.523 89.759 16.922 89.759 38.523-39.427 38.523-89.759 38.523zm0-71.399c-45.594 0-84.113 15.055-84.113 32.876s38.519 32.876 84.113 32.876 84.112-15.055 84.112-32.876-38.519-32.876-84.112-32.876z" fill="#FFF"/><g fill="#ff2e93"><path d="M89.76 179.518c-21.602 0-38.523-39.427-38.523-89.759S68.158 0 89.76 0s38.523 39.427 38.523 89.759-16.922 89.759-38.523 89.759zm0-173.871c-17.821 0-32.876 38.518-32.876 84.112s15.055 84.112 32.876 84.112c17.82 0 32.876-38.518 32.876-84.112S107.58 5.647 89.76 5.647z"/><circle cx="89.759" cy="89.759" r="4.242"/></g></svg></g><g transform="translate(613.0 125.0) rotate(0.0 94.0 65.0) translate(0.0 0.0) scale(3.8923395445134576 3.8805970149253732)"><svg width="48.3" height="20.358" viewBox="0 0 48.3 20.358"><path d="M2.1 4.2h5.4c1.2 0 2.1-.9 2.1-2.1S8.7 0 7.5 0H2.1C.9 0 0 .9 0 2.1s.9 2.1 2.1 2.1z" fill="#ff2e93"/><path d="M14.3 4.2h24.3c1.2 0 2.1-.9 2.1-2.1S39.8 0 38.6 0H14.3c-1.2 0-2.1.9-2.1 2.1-.1 1.2.9 2.1 2.1 2.1z" fill="#00e6b3"/><g fill="#fff"><path d="M8.6 11.6h10.9c1.2 0 2.1-.9 2.1-2.1s-.9-2.1-2.1-2.1H8.6c-1.2 0-2.1.9-2.1 2.1 0 1.1 1 2.1 2.1 2.1zM12 26.2c1.2 0 2.1-.9 2.1-2.1S13.2 22 12 22H4.371c-1.2 0-2.1.9-2.1 2.1 0 1.1 1 2.1 2.1 2.1M26.2 11.6h3.4c1.2 0 2.1-.9 2.1-2.1s-.9-2.1-2.1-2.1h-3.4c-1.2 0-2.1.9-2.1 2.1 0 1.1.9 2.1 2.1 2.1z"/></g><path d="M36.4 11.6h9.8c1.2 0 2.1-.9 2.1-2.1s-.9-2.1-2.1-2.1h-9.8c-1.2 0-2.1.9-2.1 2.1 0 1.1.9 2.1 2.1 2.1zM8.6 18.9h3.5c1.2 0 2.1-.9 2.1-2.1s-.9-2.1-2.1-2.1H8.6c-1.2 0-2.1.9-2.1 2.1 0 1.1 1 2.1 2.1 2.1z" fill="#00e6b3"/><path d="M18.5 18.9h21.1c1.2 0 2.1-.9 2.1-2.1s-.9-2.1-2.1-2.1H18.5c-1.2 0-2.1.9-2.1 2.1 0 1.1.9 2.1 2.1 2.1zm-8.15 14.6h21.1c1.2 0 2.1-.9 2.1-2.1s-.9-2.1-2.1-2.1h-21.1c-1.2 0-2.1.9-2.1 2.1 0 1.1.9 2.1 2.1 2.1z" fill="#ff2e93"/><path d="M18.1 26.2h16.8c1.2 0 2.1-.9 2.1-2.1s-.9-2.1-2.1-2.1H18.1c-1.2 0-2.1.9-2.1 2.1-.1 1.2.9 2.1 2.1 2.1z" fill="#00e6b3"/><path d="M41 26.2h3.9c1.2 0 2.1-.9 2.1-2.1s-.9-2.1-2.1-2.1H41c-1.2 0-2.1.9-2.1 2.1s.9 2.1 2.1 2.1z" fill="#fff"/><path d="M37.55 33.5h3.9c1.2 0 2.1-.9 2.1-2.1s-.9-2.1-2.1-2.1h-3.9c-1.2 0-2.1.9-2.1 2.1s.9 2.1 2.1 2.1z" fill="#00e6b3"/></svg></g><g transform="translate(788.0 228.0) rotate(0.0 94.0 -65.0) translate(0.0 -51.9382437157757) scale(3.8923395445134576 -3.8805970149253732)"><svg width="48.3" height="15.204" viewBox="0 13.384 48.3 15.204"><path d="M2.1 4.2h5.4c1.2 0 2.1-.9 2.1-2.1S8.7 0 7.5 0H2.1C.9 0 0 .9 0 2.1s.9 2.1 2.1 2.1z" fill="#ff2e93"/><path d="M14.3 4.2h24.3c1.2 0 2.1-.9 2.1-2.1S39.8 0 38.6 0H14.3c-1.2 0-2.1.9-2.1 2.1-.1 1.2.9 2.1 2.1 2.1z" fill="#00e6b3"/><g fill="#fff"><path d="M8.6 11.6h10.9c1.2 0 2.1-.9 2.1-2.1s-.9-2.1-2.1-2.1H8.6c-1.2 0-2.1.9-2.1 2.1 0 1.1 1 2.1 2.1 2.1zM12 26.2c1.2 0 2.1-.9 2.1-2.1S13.2 22 12 22H4.371c-1.2 0-2.1.9-2.1 2.1 0 1.1 1 2.1 2.1 2.1M26.2 11.6h3.4c1.2 0 2.1-.9 2.1-2.1s-.9-2.1-2.1-2.1h-3.4c-1.2 0-2.1.9-2.1 2.1 0 1.1.9 2.1 2.1 2.1z"/></g><path d="M36.4 11.6h9.8c1.2 0 2.1-.9 2.1-2.1s-.9-2.1-2.1-2.1h-9.8c-1.2 0-2.1.9-2.1 2.1 0 1.1.9 2.1 2.1 2.1zM8.6 18.9h3.5c1.2 0 2.1-.9 2.1-2.1s-.9-2.1-2.1-2.1H8.6c-1.2 0-2.1.9-2.1 2.1 0 1.1 1 2.1 2.1 2.1z" fill="#00e6b3"/><path d="M18.5 18.9h21.1c1.2 0 2.1-.9 2.1-2.1s-.9-2.1-2.1-2.1H18.5c-1.2 0-2.1.9-2.1 2.1 0 1.1.9 2.1 2.1 2.1zm-8.15 14.6h21.1c1.2 0 2.1-.9 2.1-2.1s-.9-2.1-2.1-2.1h-21.1c-1.2 0-2.1.9-2.1 2.1 0 1.1.9 2.1 2.1 2.1z" fill="#ff2e93"/><path d="M18.1 26.2h16.8c1.2 0 2.1-.9 2.1-2.1s-.9-2.1-2.1-2.1H18.1c-1.2 0-2.1.9-2.1 2.1-.1 1.2.9 2.1 2.1 2.1z" fill="#00e6b3"/><path d="M41 26.2h3.9c1.2 0 2.1-.9 2.1-2.1s-.9-2.1-2.1-2.1H41c-1.2 0-2.1.9-2.1 2.1s.9 2.1 2.1 2.1z" fill="#fff"/><path d="M37.55 33.5h3.9c1.2 0 2.1-.9 2.1-2.1s-.9-2.1-2.1-2.1h-3.9c-1.2 0-2.1.9-2.1 2.1s.9 2.1 2.1 2.1z" fill="#00e6b3"/></svg></g></svg>